<?xml version="1.0" standalone="no"?>
<!DOCTYPE svg PUBLIC "-//W3C//DTD SVG 20010904//EN"
 "http://www.w3.org/TR/2001/REC-SVG-20010904/DTD/svg10.dtd">
<svg version="1.0" xmlns="http://www.w3.org/2000/svg"
 width="16.000000pt" height="16.000000pt" viewBox="0 0 16.000000 16.000000"
 preserveAspectRatio="xMidYMid meet">
<metadata>
Created by potrace 1.11, written by Peter Selinger 2001-2013
</metadata>
<g transform="translate(0.000000,16.000000) scale(0.006838,-0.006838)"
fill="#000000" stroke="none">
<path d="M320 1420 c0 -38 2 -40 30 -40 l30 0 0 -165 0 -165 -30 0 c-28 0 -30
-2 -30 -40 l0 -40 95 0 95 0 0 40 c0 36 -2 40 -25 40 l-25 0 0 167 c0 101 4
163 9 158 5 -6 43 -98 84 -205 72 -188 75 -195 103 -198 29 -2 29 -2 104 199
41 110 78 203 82 205 5 3 8 -40 8 -94 0 -95 -1 -100 -25 -116 -14 -9 -25 -22
-25 -30 0 -7 -31 -76 -69 -152 -38 -76 -68 -140 -66 -142 11 -11 56 18 107 70
l58 59 61 -3 61 -3 -21 -27 c-12 -14 -24 -40 -27 -57 -8 -40 12 -41 73 -6 43
26 61 46 22 25 -11 -7 -23 -10 -25 -7 -9 9 16 57 36 69 11 7 20 18 20 24 0 7
16 31 35 54 20 24 33 45 31 48 -3 2 -21 -5 -41 -17 -20 -11 -47 -21 -61 -21
-20 0 -24 5 -24 28 0 22 10 36 44 62 25 18 47 39 50 46 9 23 -24 16 -61 -12
l-33 -25 0 115 0 116 30 0 c28 0 30 2 30 40 l0 40 -124 0 -124 0 -10 -27 c-5
-16 -24 -66 -42 -113 -18 -47 -37 -98 -43 -114 -10 -26 -13 -20 -63 110 l-52
139 -126 3 -126 3 0 -41z m526 -368 c-11 -10 -15 4 -8 28 l7 25 3 -23 c2 -13
1 -26 -2 -30z"/>
<path d="M1070 1360 l0 -100 45 0 45 0 0 60 0 60 35 0 35 0 0 -106 0 -106 -38
-47 c-89 -107 -145 -210 -138 -253 3 -18 9 -23 31 -21 29 2 139 69 167 103 10
11 25 20 33 20 17 0 20 -11 6 -26 -14 -14 -20 -67 -8 -81 5 -7 19 -13 31 -13
22 0 145 79 146 94 0 5 -8 2 -17 -6 -28 -24 -83 -49 -93 -43 -28 17 4 75 41
75 11 0 25 5 32 10 7 6 28 21 47 33 23 15 36 32 38 50 4 34 -17 36 -71 7 -20
-11 -46 -20 -57 -20 -19 0 -20 7 -20 165 l0 165 35 0 35 0 0 -60 0 -60 45 0
45 0 0 100 0 100 -225 0 -225 0 0 -100z m151 -293 c-10 -9 -11 -8 -5 6 3 10 9
15 12 12 3 -3 0 -11 -7 -18z m229 -36 c-15 -29 -30 -35 -30 -13 0 22 8 32 27
32 10 0 11 -5 3 -19z m-259 -61 c10 0 19 -4 19 -8 0 -10 -70 -82 -81 -82 -20
0 -18 23 8 72 18 36 28 47 31 36 2 -10 12 -18 23 -18z"/>
<path d="M1570 1420 c0 -38 2 -40 30 -40 l30 0 0 -147 0 -148 -50 -28 c-27
-15 -54 -36 -59 -45 -12 -23 2 -55 36 -81 27 -20 27 -21 9 -36 -11 -8 -27 -15
-37 -15 -18 0 -33 36 -18 46 5 3 9 10 9 16 0 14 -48 -29 -62 -55 -24 -45 41
-63 89 -24 15 13 41 31 56 41 22 13 28 24 24 42 l-4 24 188 0 189 0 0 115 0
115 -45 0 -45 0 0 -75 0 -75 -75 0 -75 0 0 165 0 165 30 0 c28 0 30 2 30 40
l0 40 -125 0 -125 0 0 -40z"/>
<path d="M1115 1175 c-23 -24 -33 -45 -20 -45 17 0 66 33 75 50 16 30 -23 26
-55 -5z"/>
</g>
</svg>
